<svg width="800" height="800" viewBox="0 0 800 800" fill="none" xmlns="http://www.w3.org/2000/svg">
<path d="M383.809 718.515C382.963 717.086 385.175 696.383 388.723 672.52C397.835 611.223 398.189 612.412 377.663 635.44C336.933 681.137 264.605 717.395 213.783 717.595L200.569 717.64L206.841 706.789C217.322 688.646 253.481 653.406 276.606 638.794L298.445 624.994L257.514 622.88C195.534 619.68 141.531 603.909 88.0789 573.446C72.8846 564.789 59.0732 556.326 57.3869 554.635C53.8955 551.149 88.2869 539.749 121.678 533.337C153.471 527.229 225.211 528.023 256.267 534.823C270.458 537.909 282.471 540.08 282.963 539.566C283.478 538.994 272.843 530.114 259.378 519.657C192.961 468.086 131.389 379.069 102.499 292.846C93.8309 266.977 91.5303 255.926 94.8132 255.926C100.31 255.926 157.649 282.554 177.961 294.543C234.597 327.96 290.419 378.88 327.811 431.223C338.722 446.497 346.748 455.869 345.647 452.052C338.207 426.257 334.993 392.309 334.965 339.234C334.931 272.189 339.382 241.132 357.612 181.292C368.231 146.434 397.73 78.8916 402.337 78.8916C405.799 78.8916 428.236 128.834 438.473 159.326C467.083 244.554 475.266 349.772 459.636 431.452C456.739 446.6 454.367 460.469 454.367 462.274C454.367 464.103 463.178 452.68 473.947 436.937C522.669 365.726 596.626 304.577 675.248 270.503C716.337 252.697 714.934 252.554 709.327 273.989C686.748 360.377 619.668 461.097 545.261 520.332C531.294 531.452 520.653 540.549 521.614 540.549C522.574 540.549 533.222 538.32 545.273 535.577C596.436 523.937 654.702 525.492 709.81 539.977C749.546 550.412 750.459 551.68 728.374 565.766C673.416 600.823 614.665 619.012 543.835 622.892L506.602 624.949L527.69 637.423C547.843 649.343 595.179 694.903 603.43 710.32C607.098 717.177 606.504 717.64 593.895 717.64C571.625 717.64 528.758 704.874 498.498 689.24C477.136 678.194 462.531 667.075 440.246 644.869L410.504 615.234L420.137 662.097C425.434 687.875 429.836 711.692 429.918 715.034C430.033 720.234 426.747 721.109 407.71 721.109C395.413 721.109 384.655 720 383.809 718.515Z" fill="white"/>
</svg>
