<svg width="512" height="512" viewBox="0 0 512 512" fill="none" xmlns="http://www.w3.org/2000/svg">
<path d="M464 256C464 141.13 370.87 48 256 48C141.13 48 48 141.13 48 256C48 370.87 141.13 464 256 464C370.87 464 464 370.87 464 256Z" stroke="white" stroke-width="32" stroke-miterlimit="10"/>
<path d="M445.57 172.14C429.51 172.24 431.09 201.87 411.08 187.89C403.65 182.71 399.08 175.18 389.75 172.89C381.6 170.89 373.25 172.97 365.2 174.36C356.05 175.94 345.2 176.65 338.26 183.58C331.55 190.25 328 199.2 320.86 205.91C307.05 218.91 301.22 233.1 310.16 251.48C318.76 269.15 336.75 278.74 356.16 277.48C375.23 276.21 395.04 265.15 394.49 292.86C394.29 302.66 396.34 309.46 399.35 318.57C402.14 326.97 401.95 335.11 402.59 343.78C403.77 359.98 406.75 378.14 414.79 392.45L429.79 371.29C431.64 368.67 435.51 365 436.43 361.91C438.06 356.44 434.85 347.04 434.48 340.91C434.11 334.78 434.29 328.57 433.35 322.44C432.03 313.85 426.95 305.8 426.25 297.31C424.96 281.5 427.85 268.88 415.67 255.66C403.91 242.91 386.67 239.85 370.2 242.44C361.9 243.74 328.49 249.08 341.9 230.11C344.55 226.38 349.18 223.32 352.16 219.77C354.75 216.68 357 211 360.04 208.59C363.08 206.18 377.04 203.41 381.04 204.64C385.04 205.87 389.21 211.64 392.68 214.2C399.091 219.029 406.573 222.24 414.49 223.56C428.15 225.56 456.71 217.62 456.49 200.1C456.45 191.7 448.65 180 445.57 172.14ZM287.45 316.3C282.12 293.86 251.63 286.36 235.19 274.19C225.74 267.19 217.33 256.38 204.92 255.5C199.2 255.09 194.41 256.33 188.74 254.86C183.54 253.52 179.46 250.72 173.92 251.45C163.57 252.81 157.04 263.87 145.92 262.37C135.37 260.95 124.5 248.61 122.1 238.56C119.02 225.64 129.24 221.45 140.19 220.3C144.76 219.82 149.89 219.3 154.28 220.97C160.06 223.12 162.79 228.78 167.98 231.64C177.71 236.97 179.68 228.45 178.19 219.81C175.96 206.87 173.36 201.59 184.9 192.69C192.9 186.55 199.74 182.11 198.46 171.08C197.7 164.6 194.15 161.67 197.46 155.22C199.97 150.31 206.86 145.88 211.35 142.95C222.94 135.39 261 135.95 245.45 114.79C240.88 108.58 232.45 97.4799 224.45 95.9599C214.45 94.0699 210.01 105.23 203.04 110.15C195.84 115.24 181.82 121.02 174.61 113.15C164.91 102.56 181.04 99.0799 184.61 91.6899C188.18 84.2999 176.34 70.3299 170 66.7899L140.19 100.22C139.334 105.818 139.632 111.533 141.066 117.012C142.5 122.491 145.04 127.619 148.53 132.08C154.46 139.71 163.9 142.16 164.33 152.58C164.75 162.58 163.19 167.7 156.65 174.73C153.82 177.73 151.82 181.99 148.94 184.8C145.41 188.23 146.72 187.18 141.21 188.12C130.85 189.87 122.03 192.57 112.02 195.33C95.34 199.94 93.8 172.69 86.2 162L61.2 182.19C60.93 185.5 65.3 191.59 66.49 195.19C73.32 215.76 87.1 231.67 96 251.35C105.37 272.19 130.53 266.41 141.64 284.67C151.5 300.87 140.97 321.38 148.35 338.34C153.71 350.65 166.35 353.34 175.07 362.34C183.98 371.43 183.79 383.87 185.15 395.7C186.684 409.614 189.173 423.407 192.6 436.98C193.81 441.67 194.92 447.87 198.13 451.74C200.33 454.4 207.88 456.69 204.83 457.57C209.09 458.27 216.68 462.25 220.23 459.33C224.91 455.49 223.66 443.67 224.47 438.33C226.9 422.43 234.86 406.88 245.6 394.98C256.21 383.24 270.75 375.29 279.71 361.98C288.44 349 291.07 331.49 287.45 316.3ZM254.06 342.62C248.06 353.33 234.7 360.5 226.11 369.01C223.78 371.32 218.82 379.32 215.9 377.59C213.81 376.35 213.1 365.97 212.33 363.59C208.358 351.605 200.774 341.143 190.62 333.64C187.49 331.27 179.73 328.19 177.94 324.94C175.94 321.41 177.74 313.08 177.81 309.24C177.92 303.64 175.37 294.33 176.75 289.24C178.35 283.37 175.27 286.91 180.52 285.75C183.29 285.13 194.73 287.14 198.18 287.86C203.66 289 206.68 292.41 211 295.86C222.36 304.97 234.87 312.02 247.6 319C257.46 324.46 260.36 331.37 254.06 342.62ZM184.46 67.0899C189.2 71.7199 193.66 77.1999 200.73 77.6599C207.42 78.1099 213.73 74.4899 219.57 79.0399C226.05 84.0399 230.72 90.3699 239.32 91.9299C247.64 93.4399 256.45 88.5799 258.51 80.0699C260.51 71.9599 256.2 63.1399 255.94 54.9999C255.94 53.8699 256.55 48.8499 255.77 47.9999C255.19 47.3599 250.35 48.0799 249.61 48.0999C244.19 48.2599 238.783 48.6332 233.39 49.2199C213.728 51.348 194.473 56.2814 176.21 63.8699C178.64 65.5499 181.69 66.2199 184.46 67.0899ZM356.4 123.27C364.89 123.27 373.51 119.47 370.77 109.65C368.47 101.42 364.55 92.4899 355.01 96.9299C348.94 99.7499 340.34 106.93 339.63 114.05C338.82 122.13 350.74 123.27 356.4 123.27ZM349.62 166.24C358.29 171.43 371.15 168.99 377.69 161.58C382.8 155.78 385.81 145.71 395 145.72C399.046 145.711 402.933 147.296 405.82 150.13C409.62 154.06 408.87 157.75 409.68 162.67C411.49 173.72 423.34 163.3 426.43 159.02C428.43 156.23 431.14 152.09 430.23 148.46C429.39 145.07 425.43 141.46 423.67 138.35C418.53 129.35 414.3 118.88 406.6 111.61C399.19 104.61 390.08 105.42 383.05 112.69C377.29 118.69 370.6 123.44 366.66 130.74C363.88 135.87 360.75 138.32 355.12 139.65C352.02 140.38 348.48 140.65 345.88 142.73C338.64 148.43 342.76 162.12 349.62 166.24Z" fill="white"/>
</svg>
