<svg width="776" height="992" viewBox="0 0 776 992" fill="none" xmlns="http://www.w3.org/2000/svg">
<g clip-path="url(#clip0_151_5218)">
<path d="M406.76 683.38C381.87 642.63 385.6 659.73 394.01 612.73C476.06 662.34 577.79 678.31 671.09 656.21C634.38 634.59 600.7 607.82 571.35 576.93C636 568.07 686.81 518.71 730.35 470.1C735.86 463.95 741.72 456.38 739.92 448.33C737.18 436.05 720.55 434.39 708.02 435.5C663.19 439.49 618.36 443.48 573.52 447.47C597.79 429.98 617.93 406.8 631.87 380.33C647.32 350.97 654.99 318.25 662.5 285.94C671.5 247.24 680.5 208.53 689.5 169.83C593.23 204.31 508.42 270 450.96 354.58C458.12 269.17 450.44 182.54 428.36 99.7204C421.02 72.1704 410.58 42.9604 386.86 27.1504C372.6 57.5704 363.16 89.9904 353.78 122.25C332.15 196.62 310.33 274.47 325.14 350.49C267.5 269.71 176.19 221 88.2101 175.11C85.1101 248.39 124.39 315.98 162.36 378.74C178.76 405.85 195.16 432.96 211.56 460.06C158.69 422.44 84.6901 417 26.8801 446.48C61.6801 484.66 100.03 519.6 141.28 550.71C164.83 568.47 194.61 585.77 222.22 575.39C176.41 589.74 135.19 618.39 105.78 656.32C196.63 670.6 300.91 647.22 383.97 607.72C378.53 636.7 371.98 672.16 393.74 692.06" fill="#37955F"/>
<path d="M775.19 431.92C719.83 413.1 665.43 416.2 610.09 429.38C667.95 340.71 703.18 245.07 712.24 139.98C615.17 174.63 536.75 234.34 473.49 314.58C472.59 290.88 472.14 267.57 470.74 244.32C468.01 199.13 460.32 154.78 446.49 111.61C435.52 77.3702 421.09 44.7502 400.02 15.3702C396.27 10.1502 392.01 5.29023 387.76 -0.00976562C386.06 1.86023 384.91 3.04023 383.85 4.29023C370.78 19.7902 360.39 37.0202 351.45 55.1402C322.96 112.87 309.76 174.59 304.86 238.27C303.05 261.82 303.27 285.54 302.57 309.18C302.52 310.88 302.57 312.58 302.57 314.28C270.6 274.77 235.18 239.75 194.68 209.94C154.27 180.19 110.98 155.85 62.08 139.14C71.99 245.15 107.35 340.79 165.04 429.32C109.56 416.26 55.02 412.92 0.0200195 432.04C38.7 506.56 99.25 553.27 177.24 580.91C137.72 602.05 109.18 634.82 77.81 665.97C87.01 668.6 95.19 671.29 103.55 673.26C125.71 678.48 148.32 679.69 170.98 680.44C198.3 681.34 225.74 683.18 252.82 678.86C294 672.3 333.41 659.96 369.55 638.5C370.46 637.96 371.51 637.64 372.83 637.08C373.12 638.99 373.44 640.44 373.55 641.9C374.79 658.4 377 674.75 380.43 690.84C390.39 687.21 401.56 686.65 411.98 689.01C410.79 683.48 409.73 677.92 408.78 672.33C406.9 661.23 405.78 650 404.22 638.08C412.46 642.39 419.61 646.6 427.13 649.98C472.59 670.41 519.73 683 570.15 681.32C602.61 680.24 635.16 680.73 667.17 674.21C677.08 672.19 686.74 668.96 697.39 666.04C665.88 634.85 637.55 602.2 598.03 580.89C676.21 553.09 736.75 506.41 775.18 431.91L775.19 431.92ZM496.98 577.25C549.92 587.18 594.55 612.78 635.11 647.05C606.24 651.78 577.22 650.29 548.31 649.96C518.94 649.63 491.32 640.55 464.25 630.06C437.05 619.52 410.62 607.39 388.03 589.27C343.37 620.54 294.55 641.73 240.77 648.67C207.74 652.93 174.11 651.27 140.69 647.24C180.89 612.48 225.56 587.19 279.6 577.37C270.4 575.49 262.48 573.91 254.58 572.25C195.43 559.82 141.29 536.64 95.67 496.21C83.02 485 72.1 471.82 60.44 459.49C59.09 458.06 58.08 456.3 56.27 453.8C129.38 443.43 195.75 463.44 260.59 492.91C173.68 408.69 122.9 305.13 95.83 188.6C207.86 250.36 293.41 337.32 349.46 452.95C321.32 315.66 328.7 181.71 387.58 52.5702C446.38 181.49 453.92 315.29 425.81 452.61C481.88 337.22 567.32 250.23 679.34 188.45C667.01 246.01 646.7 300.53 619.55 352.62C592.22 405.04 556.56 451.18 515.12 493.37C518.63 491.64 522.05 489.73 525.65 488.22C562.84 472.64 600.47 458.49 640.87 453.57C665.43 450.58 690 449.72 714.59 453.25C715.69 453.41 716.76 453.74 719 454.25C662.06 527.25 585 562.05 496.97 577.24L496.98 577.25Z" fill="black"/>
<path d="M168.93 685.98C168.93 685.98 162.67 824.46 376.28 830.4C451.21 832.48 505.77 814.43 536 786.72C586.38 740.54 581.56 673.69 581.56 673.69L573.36 620.44L591.48 620.26L595.46 605.35L592.49 583.58L562.43 537.16L537.84 516.68L555.6 474.35L556.69 415.44L548.77 362.39L507.78 305.04L454.49 270.91L384.81 254.53L297.37 273.65L241.35 311.88L214.16 338.39L196.27 373.32L185.34 418.38L188.07 467.53L209.93 515.32L226.33 533.07L201.74 559.01L182.61 594.51L174.41 635.47L168.94 685.99L168.93 685.98Z" fill="#FAEE36"/>
<path d="M286.11 435.61C291.94 446.92 296.74 462.84 313.64 467.46C319.37 469.03 334.33 463.66 340.53 463.38C346.73 463.11 352.94 461.42 356.88 458.29C359.38 456.3 360.85 453.85 362.04 451.4C364.67 445.99 364.82 441.12 368.33 445.58C373.8 452.53 377.67 432.19 376.28 431.66C375.35 431.31 377.34 423.1 376.28 423.21C351.27 425.85 311.29 435.03 285.98 435.71" fill="#F2F2EF"/>
<path d="M497.16 421.47C500.95 432.78 509.79 442.29 520.78 446.91C524.51 448.48 528.54 449.51 532.58 449.24C536.62 448.97 540.66 447.28 543.22 444.15C544.85 442.16 545.8 439.71 546.58 437.26C548.29 431.85 549.24 426.19 549.38 420.51C549.41 419.47 549.3 418.23 548.4 417.7C547.8 417.35 547.04 417.45 546.35 417.56C530.07 420.2 513.55 420.88 497.07 421.56" fill="#F2F2EF"/>
<path d="M375.81 474.1C382.89 472.87 390.07 472.33 397.2 471.44C399.81 471.12 402.45 470.78 404.91 469.85C410.56 467.72 414.58 462.74 418.07 457.81C421.09 453.55 423.97 449.11 427.95 445.73C435.54 439.3 444.23 438.19 453.33 442.21C467.19 448.33 477.55 465.11 492.46 467.78C496.74 468.55 501.13 467.96 505.47 467.68C509.81 467.4 514.36 467.47 518.25 469.42C522.14 471.37 525.16 475.67 524.33 479.94C523.53 484.07 521.47 488.2 518.75 491.42C514.9 495.97 511.53 501.7 508.54 506.86C503.5 515.55 494.8 520.52 485.58 524.5C476.36 528.49 409.1 552.65 366.71 507.64C366.71 507.64 343.01 479.82 375.79 474.1H375.81Z" fill="#E38D1A"/>
<path d="M377.23 479.24C386.43 477.72 396.7 478.19 405.58 475.24C413.16 472.73 418.18 466.79 422.68 460.5C427.62 453.6 432.97 445.6 442.35 445.2C450.19 444.87 457.06 450.11 462.74 454.9C468.42 459.69 473.3 464.39 479.32 468.13C486.33 472.48 493.57 473.82 501.75 473.3C508.97 472.84 522.9 472.09 517.66 483.33C515.93 487.05 512.95 490.03 510.62 493.37C508.06 497.06 505.93 501 503.55 504.8C499.41 511.42 492.57 515.45 485.64 518.66C484.89 519.01 481.93 520.27 483.52 519.62C483.14 519.77 482.77 519.93 482.39 520.07C481.2 520.52 480.02 520.96 478.82 521.38C470.9 524.13 462.7 526.15 454.43 527.51C430.33 531.48 404.39 529.01 383.7 515.17C378.75 511.86 374 507.91 370.1 503.39C370.01 503.29 370.63 504.16 369.8 502.97C369.42 502.43 369.04 501.89 368.67 501.34C367.68 499.85 366.76 498.31 365.97 496.7C364.5 493.72 363.08 489.93 364.05 486.63C365.58 481.43 372.67 480.1 377.21 479.23C383.95 477.95 381.09 467.67 374.37 468.94C362.46 471.2 351.46 478.44 353.37 491.92C354.37 499 358.22 505.92 362.87 511.31C382.31 533.86 414.51 541.6 443.1 539.5C463.31 538.01 487.22 533.18 503.57 520.33C510.99 514.5 514.55 506.31 519.82 498.74C524.69 491.73 532.15 483.68 529.12 474.31C526.09 464.94 516.02 461.97 507.1 462.25C502.28 462.4 497.34 463.42 492.57 462.36C488.4 461.44 484.66 459.08 481.27 456.57C466.41 445.58 451.31 427.28 430.78 437.45C420.33 442.62 416.45 453.38 408.51 461.09C404.41 465.07 399.73 465.81 394.26 466.43C387.62 467.19 380.97 467.84 374.37 468.94C367.77 470.04 370.48 480.34 377.21 479.23L377.23 479.24Z" fill="#231F20"/>
<path d="M215.08 532.05C190.52 548.76 178.59 578.13 172.05 606.06C166.66 629.11 164.39 652.96 164.15 676.61C163.8 712.04 176.08 750.54 199.71 777.12C210.12 788.84 223.16 797.85 237.75 803.55C258.38 811.62 280.4 817.16 302.01 821.86C345.15 831.23 390.38 836.16 434.39 830.74C454.12 828.31 473.41 823.36 492.37 817.43C506.37 813.05 520.51 807.81 532.76 799.58C558.51 782.28 571.96 752.09 580.93 723.41C587.83 701.34 588.27 676.85 585.25 653.99C580.68 619.38 567.81 586.05 551.39 555.42C545.63 544.67 539.33 534.22 532.65 524.02C528.9 518.3 519.66 523.64 523.44 529.4C555.91 578.98 580.77 637.27 575.54 697.66C574.11 714.22 567.82 730.54 561.15 745.61C555.73 757.85 549.27 769.94 539.97 779.7C519.85 800.81 488.86 808.03 461.62 814.93C421.27 825.16 378.23 823.69 337.35 817.56C315.65 814.3 294.16 809.6 273.04 803.64C255.77 798.76 237.75 794.06 222.85 783.66C201.37 768.66 188.34 744.31 181.21 719.63C177.68 707.41 175.08 695.66 174.81 683.53C174.42 666.16 175.64 648.51 178.14 631.33C182 604.78 188.86 575.6 206.31 554.42C210.43 549.42 215.11 544.92 220.47 541.27C226.11 537.43 220.78 528.18 215.09 532.06L215.08 532.05Z" fill="#231F20"/>
<path d="M243.64 551.94C238.6 546.24 234.33 539.69 229.67 533.66C224.81 527.37 219.95 521.08 215.44 514.54C206.58 501.67 199.37 487.69 194.44 472.84C184.93 444.21 185.04 414.32 194.81 385.79C204.02 358.93 220.49 334.32 241.49 315.25C252.74 305.04 265.4 296.49 278.71 289.2C292.02 281.91 304.8 275.76 318.77 271.96C348.75 263.82 379.76 262.52 410.33 267.63C440.9 272.74 469.57 285.58 493.48 305.75C514.66 323.61 532.09 346.11 541.45 372.38C546.57 386.75 549.1 401.82 549.77 417.03C550.46 432.64 550.11 449.45 547.05 464.82C542.85 485.93 534.4 508.31 520.47 524.97C504.77 543.75 483.42 557.96 463.07 571.17C456.41 575.5 449.72 579.79 443.16 584.27C437.52 588.12 442.85 597.37 448.54 593.48C472.54 577.11 498.13 562.35 519.13 542.02C535.69 525.98 545.58 506.47 552.64 484.74C557.57 469.58 559.47 454.38 560.29 438.48C561.16 421.62 560.34 404.59 556.92 388.03C550.96 359.18 535.74 332.76 515.42 311.62C493.28 288.6 466.27 272 435.79 262.67C403.67 252.84 369.91 251.78 336.94 257.26C276.29 267.34 219.89 307.14 192.87 362.75C179.24 390.81 173.4 421.64 178.44 452.6C181.07 468.75 186.53 484.36 193.83 498.98C201.13 513.6 210.98 526.78 221.01 539.76C226.04 546.26 230.64 553.31 236.08 559.46C240.64 564.61 248.16 557.05 243.62 551.92L243.64 551.94Z" fill="#231F20"/>
<path d="M393.53 506.64C411.41 513.54 430.53 517.55 449.74 517.28C467.53 517.03 486.1 513.75 500.34 502.46C505.72 498.2 498.13 490.7 492.8 494.92C480.1 504.98 461.77 506.83 446.13 506.61C429.02 506.37 412.28 502.5 396.36 496.35C389.95 493.88 387.17 504.19 393.52 506.64H393.53Z" fill="#231F20"/>
<path d="M551.11 408.29C557.49 429.42 550.89 446.25 535.35 450.94C519.81 455.63 496.61 440.86 490.23 419.73C483.85 398.6 491.21 380.93 506.75 376.24C522.29 371.55 544.73 387.16 551.11 408.3V408.29Z" stroke="#231F20" stroke-width="11.34" stroke-miterlimit="10"/>
<path d="M375.88 438.27C362.45 465.02 327.88 476.27 308.2 466.39C288.52 456.51 277.46 430.72 290.89 403.96C304.32 377.21 337.35 366.88 357.03 376.76C376.71 386.64 389.32 411.51 375.88 438.26V438.27Z" stroke="#231F20" stroke-width="11.34" stroke-miterlimit="10"/>
<path d="M287.5 434.9C299.66 435.66 311.88 435.11 324 433.94C336.12 432.77 348.68 430.87 360.86 428.44C366.95 427.22 373.01 425.85 379.03 424.3C382.14 423.5 380.82 418.67 377.7 419.48C354.78 425.39 331.06 429.18 307.4 430.08C300.77 430.33 294.13 430.31 287.51 429.9C284.3 429.7 284.31 434.7 287.51 434.9H287.5Z" fill="#231F20"/>
<path d="M496.58 422.53C514.15 420.57 532.74 419.52 550.36 418.07C549.76 416.91 549.16 415.75 548.55 414.59C530.29 416.35 511.39 417.45 494.6 418.4C495.39 420.42 495.63 420.5 496.58 422.44" fill="#231F20"/>
<path d="M521.95 419.29C522.18 418.95 521.76 419.5 521.66 419.59C521.46 419.78 521.25 419.96 521.04 420.14C520.58 420.52 520.1 420.87 519.66 421.28C518.55 422.33 517.86 423.68 517.66 425.19C517.46 426.7 517.69 428.18 518.05 429.63C518.41 431.08 519.04 432.48 520.23 433.43C522.67 435.36 526.07 434.88 528.66 433.54C531.07 432.3 533.03 430.27 534.99 428.44C536.95 426.61 539.14 424.31 539.16 421.34C539.17 419.69 538.42 417.99 536.99 417.11C535.45 416.17 533.59 416.56 531.92 416.85C530.54 417.09 529.17 417.45 527.84 417.91C526.51 418.37 525.04 418.9 523.83 419.7C522.55 420.54 521.41 421.73 521.03 423.25C520.7 424.58 520.9 426.09 521.68 427.23C522.74 428.77 524.57 429.37 526.36 428.93C527.86 428.56 529.17 427.47 530.3 426.49C530.77 426.09 531.21 425.66 531.63 425.21C531.71 425.12 532.3 424.61 532.29 424.46C532.3 424.6 530.79 425.15 531.51 424.98C532.18 424.82 532.85 424.62 533.52 424.44C534.28 424.24 535.12 424.07 535.81 423.69C537.52 422.76 537.69 420.27 535.96 419.24C534.65 418.46 532.75 418.89 531.33 419.06C529.41 419.3 527.63 419.57 525.96 420.65C523.81 422.03 522.05 424.25 521.49 426.77C521.28 427.75 521.26 428.74 521.79 429.62C522.32 430.5 523.38 431.01 524.42 431.08C525.74 431.16 527.16 430.47 528.25 429.77C530.45 428.35 532.22 426.15 532.94 423.61C533.51 421.61 532.64 419.73 530.73 418.91C529.29 418.29 527.73 418.42 526.33 419.08C525.05 419.68 524.09 420.77 523.58 422.08C522.93 423.75 523.33 425.85 525.11 426.62C526.89 427.39 528.97 426.4 529.93 424.88C530.79 423.52 530.77 421.75 529.85 420.43C528.72 418.8 526.65 418.29 524.88 419.22C523.11 420.15 522.41 422.35 523.35 424.05C524.16 425.51 526.01 426.46 527.65 425.83C528.91 425.35 529.78 424.15 529.4 422.75C529.07 421.55 527.59 420.52 526.32 421C525.63 421.26 527.05 420.94 527.4 421.28C527.6 421.4 527.7 421.6 527.72 421.87C528.01 422.22 528.01 422.57 527.72 422.92C527.57 423.29 527.5 423.59 527.09 423.68C526.62 423.79 526.22 423.68 525.89 423.36C525.74 423.28 525.64 423.16 525.61 423.01C525.56 422.86 525.56 422.86 525.6 422.99C525.68 423.42 525.56 422.4 525.72 422.18C525.81 422.06 525.92 422.02 526.01 421.93C525.79 422.06 525.75 422.08 525.9 421.99C526.27 421.76 526.7 421.79 527.17 422.08L528.07 422.98C528.22 423.22 528.14 423.63 528.22 423.86C528.28 424.05 528.19 423.98 528.24 423.8C528.38 423.33 528.18 424.12 528.33 423.67C528.26 423.89 528.13 423.75 528.26 423.78C528.27 423.78 528.46 423.58 528.48 423.57C528.09 423.96 528.79 423.44 528.55 423.55C528.2 423.7 529.12 423.44 528.7 423.5C528.36 423.55 529.18 423.61 528.84 423.5C528.5 423.39 528.88 423.53 528.9 423.54C528.7 423.42 528.74 423.5 528.53 423.27C528.42 423.15 528.02 422.15 528.18 422.06C528.13 422.09 528.07 422.45 528.05 422.52C528.01 422.65 527.78 423.15 527.96 422.79C527.86 423 527.75 423.21 527.64 423.41C527.53 423.61 527.39 423.81 527.26 424.01C527.26 424.02 527.02 424.33 527.18 424.13C527.32 423.94 527.03 424.3 527 424.33C526.84 424.51 526.68 424.67 526.51 424.84C526.43 424.92 526.34 425 526.25 425.08C526.24 425.09 525.94 425.34 526.14 425.18C526.34 425.02 526.03 425.26 526.02 425.27C525.92 425.34 525.83 425.4 525.73 425.47C525.5 425.62 525.26 425.76 525.02 425.88C524.9 425.94 524.39 426.13 524.76 426.01C524.67 426.04 524.53 426.07 524.45 426.12C524.23 426.25 524.54 426.07 524.62 426.12L525.47 427.13C525.96 428.26 526.25 428.56 526.35 428.03C526.4 427.93 526.41 427.8 526.44 427.7C526.47 427.59 526.51 427.48 526.55 427.37C526.67 427 526.39 427.68 526.55 427.33C526.76 426.88 527.01 426.45 527.31 426.05C527.07 426.37 527.41 425.95 527.5 425.85C527.68 425.65 527.88 425.47 528.08 425.29C528.17 425.21 528.25 425.14 528.34 425.07C528.3 425.1 528.06 425.27 528.29 425.12C528.48 425 528.67 424.87 528.87 424.76C528.96 424.71 529.48 424.45 529.29 424.54C529.04 424.65 529.39 424.51 529.42 424.5C529.57 424.45 529.71 424.4 529.86 424.36C530.12 424.29 530.39 424.23 530.66 424.19C530.74 424.18 530.82 424.17 530.9 424.16C531.4 424.09 530.61 424.2 530.76 424.18C531.49 424.09 532.23 424 532.96 423.93C533.3 423.9 533.63 423.87 533.97 423.87C534.09 423.87 534.24 423.89 534.35 423.87C534.43 423.86 534.76 423.94 534.18 423.84C533.86 423.78 533.87 423.9 533.44 423.6L532.54 422.7V422.72C532.47 422.08 532.39 421.44 532.3 420.79V420.81C532.51 420.44 532.72 420.07 532.94 419.71C533.04 419.6 533.6 419.15 533.81 419.19C533.75 419.18 533.58 419.27 533.52 419.29C533.3 419.35 533.09 419.42 532.87 419.48C532.25 419.65 531.63 419.8 531.01 419.97C530.64 420.07 530.26 420.16 529.9 420.3C528.73 420.73 528.07 421.8 527.18 422.62C526.52 423.23 525.94 423.84 525.02 424.18L525.14 424.11C524.84 424.19 524.81 424.19 525.07 424.12C525.32 424.2 525.47 424.24 525.71 424.37L525.87 424.58C525.74 424.34 525.74 424.36 525.88 424.65C525.92 424.14 525.88 425.11 525.85 424.53V424.33C525.81 424.66 525.82 424.69 525.88 424.41L525.78 424.64C525.94 424.39 525.95 424.36 525.8 424.53C525.94 424.34 526.14 424.16 526.33 424.01C526.22 424.1 526.06 424.17 526.43 423.96C527.39 423.44 528.11 423.1 529.14 422.74C530.17 422.38 531.25 422.08 532.33 421.85C532.92 421.73 533.51 421.61 534.11 421.54C533.84 421.57 534.41 421.52 534.46 421.52C534.6 421.51 534.74 421.51 534.87 421.52C534.59 421.52 534.36 421.44 534.18 421.25L534.06 421.08C534.2 421.33 534.21 421.34 534.09 421.09L534.15 421.31C534.12 421.01 534.11 421.02 534.13 421.34C534.1 422.1 534.22 421.1 534.11 421.53C534.06 421.73 534.01 421.92 533.93 422.11C534.12 421.66 533.75 422.38 533.74 422.4C533.74 422.39 533.29 423.08 533.54 422.73C533.23 423.15 532.85 423.52 532.49 423.89C531 425.38 529.44 426.91 527.76 428.18C528.09 427.93 527.39 428.44 527.42 428.42C527.21 428.57 526.99 428.71 526.77 428.85C526.41 429.07 526.03 429.29 525.64 429.45C526.07 429.27 525.31 429.55 525.3 429.55C525.06 429.62 524.82 429.68 524.58 429.73C524.99 429.66 524.59 429.73 524.51 429.73C524.41 429.73 523.47 429.67 523.93 429.75C523.7 429.71 523.43 429.66 523.22 429.56C523.45 429.64 523.43 429.61 523.17 429.48C523.33 429.59 523.35 429.59 523.23 429.48C523.05 429.25 523.29 429.86 523.15 429.32C523.02 429.06 523.01 429.04 523.12 429.26C523.07 429.11 523.02 428.95 522.97 428.8C522.63 427.63 522.42 426.95 522.56 425.82C522.51 426.28 522.67 425.47 522.67 425.46C522.55 425.8 522.84 425.19 522.87 425.14C522.6 425.54 523.05 424.97 523.09 424.93C523.32 424.71 523.56 424.51 523.81 424.31C524.74 423.55 525.56 422.85 526.25 421.85C527.02 420.74 526.46 419.08 525.35 418.43C524.11 417.71 522.7 418.21 521.93 419.33L521.95 419.29Z" fill="#231F20"/>
<path d="M521.58 428.06C522.86 428.4 524.05 427.85 525.02 427.04C525.42 426.71 525.79 426.34 526.15 425.96C526.55 425.54 526.96 425.07 527.2 424.54C527.37 424.15 527.45 423.75 527.33 423.33C527.22 422.94 526.95 422.63 526.62 422.4C526.06 422.02 525.36 422.04 524.73 422.14C523.8 422.28 522.93 422.75 522.24 423.38C521.55 424.01 521.01 424.89 520.81 425.81C520.75 426.08 520.7 426.36 520.71 426.64C520.74 427.12 520.97 427.53 521.38 427.79C522.04 428.21 522.79 427.96 523.42 427.64C524.36 427.17 525.15 426.45 525.78 425.62C526.16 425.11 526.52 424.5 526.3 423.84C526.02 423.03 525.17 422.68 524.37 422.85C523.81 422.97 523.29 423.32 522.85 423.68C522.45 424.01 522.1 424.42 521.85 424.87C521.51 425.46 521.31 426.18 521.68 426.81C521.91 427.2 522.31 427.43 522.76 427.47C523.13 427.5 523.49 427.34 523.81 427.16C524.27 426.9 524.66 426.54 524.98 426.12C525.32 425.68 525.64 425.15 525.66 424.57C525.69 423.71 524.89 422.99 524.03 423.32C523.48 423.53 523.01 423.91 522.61 424.33C522.21 424.75 521.81 425.19 521.62 425.75C521.37 426.46 521.66 427.3 522.36 427.62C523.53 428.16 524.75 427.24 525.5 426.39C525.85 426 526.16 425.56 526.38 425.09C526.69 424.42 526.98 423.67 526.43 423.04C525.88 422.41 524.97 422.51 524.31 422.81C523.82 423.03 523.42 423.41 523.04 423.79C522.66 424.17 522.32 424.55 522.08 425C521.79 425.55 521.59 426.27 521.82 426.88C522.12 427.66 522.87 427.97 523.66 427.8C524.19 427.69 524.65 427.35 525.05 426.99C525.79 426.33 526.36 425.39 526.57 424.42C526.66 424.02 526.68 423.62 526.45 423.26C526.21 422.88 525.77 422.65 525.32 422.66C524.74 422.66 524.15 422.99 523.77 423.42C523.35 423.9 523.14 424.43 523.07 425.06C523.01 425.57 523.56 426.06 524.04 426.03C524.62 426 524.95 425.6 525.01 425.06C525.01 425.06 524.97 425.25 525 425.15C525 425.12 525.01 425.08 525.02 425.05C525.03 425.02 525.04 424.99 525.05 424.95C525.08 424.82 524.96 425.11 525.03 424.99C525.06 424.93 525.09 424.87 525.13 424.81C525.13 424.8 525.19 424.74 525.19 424.73C525.19 424.77 525.06 424.87 525.17 424.77C525.19 424.75 525.32 424.65 525.32 424.63C525.32 424.64 525.17 424.73 525.26 424.68C525.3 424.66 525.34 424.63 525.38 424.61C525.4 424.6 525.46 424.58 525.47 424.56C525.47 424.56 525.29 424.62 525.38 424.6C525.49 424.58 525.26 424.6 525.27 424.6C525.41 424.6 525.22 424.58 525.18 424.57C524.99 424.51 524.99 424.42 524.87 424.22L524.69 423.93V423.82C524.72 423.87 524.66 424.01 524.65 424.07C524.64 424.11 524.51 424.52 524.5 424.51C524.5 424.51 524.58 424.34 524.53 424.44C524.51 424.47 524.5 424.51 524.48 424.54C524.44 424.62 524.4 424.69 524.36 424.76C524.34 424.8 524.14 425.16 524.1 425.15C524.1 425.15 524.22 425.01 524.14 425.1C524.12 425.13 524.09 425.16 524.07 425.18C524.02 425.24 523.96 425.31 523.9 425.37C523.79 425.48 523.68 425.59 523.56 425.69C523.43 425.8 523.7 425.6 523.5 425.73C523.44 425.77 523.39 425.81 523.33 425.84C523.31 425.84 523.26 425.87 523.25 425.88C523.25 425.88 523.43 425.82 523.33 425.84C523.3 425.84 523.27 425.86 523.24 425.87C523.1 425.92 523.28 425.84 523.32 425.87C523.31 425.87 523.25 425.87 523.23 425.87C523.1 425.85 523.44 425.92 523.32 425.88C523.22 425.85 523.43 425.93 523.43 425.92C523.53 425.97 523.56 426.03 523.61 426.12C523.73 426.33 523.68 426.25 523.66 426.17C523.66 426.2 523.66 426.33 523.68 426.24V426.13C523.71 426.14 523.63 426.33 523.68 426.18C523.69 426.13 523.75 425.9 523.72 426.03C523.69 426.16 523.76 425.96 523.78 425.92C523.81 425.86 523.85 425.79 523.89 425.73C523.91 425.7 523.93 425.67 523.95 425.64C524.01 425.55 523.97 425.6 523.93 425.66C524.08 425.4 524.38 425.16 524.59 424.95C524.66 424.89 524.72 424.82 524.79 424.76C524.82 424.73 524.85 424.71 524.88 424.68C524.89 424.67 525 424.59 524.91 424.66C524.82 424.73 524.93 424.66 524.94 424.64C524.97 424.62 525.01 424.6 525.04 424.58C525.07 424.56 525.11 424.54 525.14 424.52C525.29 424.43 525.05 424.53 525.14 424.52L525.25 424.49C525.25 424.5 525.05 424.49 525.17 424.49H525.28C525.28 424.5 525.09 424.44 525.2 424.49C525.31 424.54 525.13 424.45 525.13 424.45L524.97 424.07C524.89 423.68 524.84 423.56 524.8 423.73C524.76 423.81 524.74 423.92 524.71 424C524.67 424.11 524.74 423.94 524.74 423.94C524.74 423.96 524.7 424.02 524.69 424.04C524.66 424.11 524.63 424.17 524.59 424.24C524.51 424.39 524.42 424.54 524.33 424.68C524.29 424.74 524.24 424.8 524.2 424.86C524.14 424.95 524.24 424.81 524.24 424.81C524.24 424.83 524.18 424.88 524.17 424.9C524.06 425.03 523.94 425.16 523.82 425.28C523.77 425.33 523.71 425.38 523.66 425.43C523.63 425.45 523.46 425.6 523.56 425.52C523.66 425.44 523.48 425.58 523.45 425.6C523.37 425.66 523.29 425.71 523.2 425.76C523.16 425.78 522.97 425.86 523.08 425.83C523.25 425.78 522.85 425.9 523.04 425.83C523.15 425.8 523.08 425.82 523.04 425.82C523.13 425.82 523.19 425.84 523.27 425.88C523.23 425.86 523.18 425.8 523.26 425.88C523.32 425.94 523.37 425.98 523.41 426.05C523.44 426.11 523.46 426.17 523.46 426.23C523.46 426.23 523.42 426.43 523.46 426.32C523.5 426.21 523.43 426.39 523.42 426.39C523.42 426.39 523.47 426.3 523.47 426.29C523.5 426.24 523.56 426.09 523.61 426.07C523.61 426.07 523.49 426.2 523.57 426.12C523.6 426.08 523.64 426.04 523.67 426.01C523.89 425.76 524.13 425.53 524.36 425.3C524.44 425.22 524.32 425.33 524.31 425.33C524.33 425.3 524.37 425.28 524.4 425.26C524.46 425.22 524.53 425.18 524.59 425.14C524.59 425.14 524.69 425.08 524.69 425.09L524.59 425.13L523.78 424.76C523.73 424.7 523.73 424.62 523.71 424.54C523.66 424.37 523.69 424.62 523.71 424.45C523.73 424.22 523.65 424.6 523.71 424.43C523.75 424.31 523.67 424.5 523.65 424.54C523.61 424.61 523.57 424.68 523.53 424.75C523.51 424.79 523.36 424.98 523.44 424.88C523.52 424.78 523.38 424.95 523.36 424.97C523.31 425.02 523.26 425.07 523.21 425.12L523.02 425.28C523.02 425.28 523.17 425.17 523.08 425.24C523.04 425.27 523 425.29 522.96 425.32C522.9 425.36 522.84 425.4 522.78 425.43C522.72 425.46 522.52 425.52 522.71 425.47C522.94 425.41 523.23 425.58 523.35 425.77C523.35 425.77 523.42 425.96 523.39 425.86C523.36 425.78 523.39 425.98 523.4 426C523.42 426.09 523.4 426.03 523.42 425.98C523.42 425.99 523.35 426.13 523.4 426.03C523.44 425.95 523.48 425.88 523.52 425.8C523.56 425.74 523.6 425.67 523.64 425.61C523.66 425.58 523.68 425.55 523.7 425.52C523.77 425.41 523.59 425.64 523.68 425.54C523.78 425.42 523.89 425.3 524 425.19C524.05 425.14 524.11 425.09 524.16 425.04C524.18 425.03 524.27 424.95 524.18 425.02C524.09 425.09 524.21 425 524.23 424.99C524.36 424.9 524.5 424.82 524.64 424.74C524.67 424.72 524.71 424.71 524.74 424.69C524.84 424.64 524.7 424.71 524.69 424.71C524.72 424.71 524.77 424.69 524.8 424.68C524.9 424.63 524.67 424.67 524.77 424.68C524.89 424.69 524.7 424.66 524.69 424.66C524.78 424.72 524.74 424.66 524.69 424.66C524.57 424.57 524.45 424.51 524.42 424.35C524.42 424.38 524.45 423.92 524.42 424.07C524.4 424.18 524.44 424 524.45 424.01C524.45 424.01 524.33 424.21 524.32 424.23C524.27 424.3 524.22 424.38 524.17 424.45C524.15 424.48 524.12 424.51 524.1 424.54C524.04 424.63 524.14 424.5 524.14 424.49C524.1 424.61 523.91 424.77 523.82 424.86C523.71 424.98 523.59 425.09 523.47 425.2C523.41 425.25 523.36 425.3 523.3 425.35C523.29 425.36 523.19 425.44 523.28 425.37C523.37 425.3 523.25 425.39 523.23 425.41C522.97 425.6 522.69 425.77 522.39 425.92C522.35 425.94 522.3 425.96 522.25 425.98C522.16 426.03 522.28 425.97 522.3 425.96C522.21 425.99 522.07 426.01 522.24 426C522.19 426 522.1 425.97 522.22 426.01C522.28 426.03 522.34 426.03 522.4 426.07C522.45 426.1 522.49 426.15 522.53 426.2C522.58 426.25 522.6 426.32 522.6 426.39C522.63 426.54 522.64 426.57 522.64 426.49C522.64 426.46 522.67 426.27 522.64 426.43C522.64 426.46 522.62 426.57 522.64 426.43C522.65 426.36 522.66 426.3 522.68 426.23C522.71 426.08 522.76 425.93 522.81 425.79C522.87 425.62 522.73 425.94 522.81 425.78C522.84 425.72 522.87 425.66 522.9 425.6C522.97 425.46 523.05 425.33 523.14 425.2C523.18 425.15 523.23 425.09 523.26 425.04C523.26 425.04 523.14 425.19 523.21 425.11C523.23 425.09 523.25 425.06 523.27 425.03C523.37 424.91 523.48 424.8 523.59 424.7C523.64 424.65 523.69 424.61 523.74 424.57C523.88 424.45 523.6 424.66 523.75 424.56C523.88 424.47 524.01 424.38 524.14 424.31C524.25 424.25 524.39 424.2 524.5 424.13C524.5 424.13 524.32 424.2 524.42 424.17C524.45 424.16 524.48 424.15 524.51 424.14C524.59 424.11 524.68 424.08 524.76 424.06C524.88 424.03 525.03 424.02 525.15 423.98C525.15 423.98 524.95 424 525.06 423.99C525.09 423.99 525.13 423.99 525.16 423.99C525.27 423.99 525.37 423.99 525.48 423.99C525.5 423.99 525.63 424.01 525.52 423.99C525.4 423.96 525.54 423.99 525.55 424C525.74 424.06 525.45 423.93 525.59 424.03C525.59 424.03 525.44 423.92 525.52 423.99C525.6 424.06 525.47 423.93 525.47 423.93C525.38 423.78 525.42 423.81 525.44 423.88C525.42 423.81 525.41 423.75 525.42 423.68C525.42 423.66 525.49 423.55 525.44 423.64C525.42 423.68 525.4 423.72 525.38 423.75C525.34 423.82 525.29 423.89 525.24 423.96C525.22 423.99 525.19 424.03 525.17 424.06C525.26 423.95 525.09 424.18 525.17 424.06C525.11 424.14 525.04 424.21 524.98 424.29C524.74 424.57 524.48 424.82 524.21 425.08C524.09 425.2 523.97 425.31 523.84 425.43C523.77 425.5 523.69 425.56 523.62 425.62C523.59 425.65 523.56 425.67 523.52 425.7C523.59 425.65 523.59 425.64 523.52 425.7C523.38 425.8 523.24 425.89 523.1 425.97C523.05 426 523 426.02 522.96 426.04C522.94 426.04 522.82 426.1 522.93 426.06C523.04 426.02 522.91 426.06 522.9 426.06C522.85 426.08 522.8 426.09 522.75 426.11C522.67 426.13 522.59 426.15 522.52 426.17C522.34 426.21 522.65 426.17 522.46 426.17C522.37 426.17 522.28 426.17 522.18 426.17C522.06 426.17 522.24 426.17 522.24 426.17C522.22 426.17 522.1 426.14 522.09 426.13C521.6 426 521.01 426.29 520.89 426.81C520.77 427.33 521.04 427.87 521.57 428.01L521.58 428.06Z" fill="#F2F2EF"/>
<path d="M322.44 433.32C318.38 436.77 316.84 443.09 319.66 447.77C321.05 450.08 323.33 451.85 325.93 452.59C328.81 453.42 331.62 452.68 334.21 451.35C339.4 448.67 344.19 444.93 348.26 440.75C350.29 438.66 352.37 436.06 352.27 432.98C352.22 431.53 351.7 430.11 350.7 429.04C349.41 427.68 347.65 427.43 345.88 427.75C338.84 429.02 331.83 431.15 325.02 433.3C322.34 434.14 322.82 438.15 325.68 438.21C326.12 438.22 326.56 438.23 326.99 438.24L325.22 433.97C323.16 436.01 322.38 438.98 323.17 441.77C323.65 443.46 325.38 443.91 326.84 443.26C329.03 442.3 330.65 440.22 331.16 437.9C331.56 436.06 330 434.32 328.08 434.82C324.55 435.76 321.32 439.32 321.8 443.16C322.07 445.29 323.83 446.79 325.99 446.67C327.89 446.57 329.49 445.39 330.73 444.03C331.97 442.67 333.51 440.89 333.54 438.9C333.57 436.53 331.39 434.56 329.02 435.19C327.17 435.68 325.49 437.48 324.36 438.94C323.16 440.48 322.08 442.3 321.87 444.27C321.64 446.37 322.83 448.51 324.98 449.02C326.83 449.46 328.74 448.66 330.19 447.54C331.74 446.34 333.05 444.86 334.23 443.31C335.41 441.76 336.75 439.97 337.19 438.09C337.78 435.57 335.71 433.55 333.24 433.84C331.44 434.05 329.76 435.08 328.4 436.25C325.89 438.41 323.35 443.16 325.22 446.4C327.75 450.79 333.48 447.18 336.17 445C339.36 442.41 341.66 438.83 342.87 434.93C343.53 432.81 341.04 431.05 339.2 432.11C336.14 433.86 333.29 436.01 330.8 438.5C329.58 439.72 328.05 441.11 327.62 442.84C327.11 444.89 328.34 446.86 330.38 447.34C333.85 448.15 337.31 444.83 339.76 442.81C342.21 440.79 344.57 438.24 345.95 435.23C347.03 432.87 344.86 430.78 342.53 431.81C339.89 432.97 337.49 434.53 335.31 436.41C333.26 438.17 329.88 441.3 332.38 444.09C334.36 446.3 337.48 445.16 339.68 443.97C341.88 442.78 343.91 440.93 345.43 438.83C346.95 436.73 349.05 432.42 345.32 431.28C343.71 430.79 342.41 431.71 341.18 432.61C339.95 433.51 338.7 434.51 337.56 435.57C335.72 437.28 332.25 440.1 333.84 442.93C335.32 445.56 338.61 444.75 340.73 443.54C343.35 442.04 345.56 439.94 347.32 437.5C348.97 435.2 350.73 431.22 347.42 429.39C345.9 428.55 343.47 429.57 343.66 431.55C343.8 433.01 343.81 434.46 343.68 435.92C343.5 438.03 346.58 439.29 347.95 437.69C349.67 435.67 350.61 433.41 350.84 430.77L346.18 432.03C346.75 432.99 346.75 433.96 346.18 434.92C345.49 436.08 345.92 437.66 347.08 438.34C348.36 439.09 349.69 438.53 350.5 437.44C351.69 435.85 352.25 433.92 352.25 431.94L347.34 432.6C348.26 435.15 345.8 437.47 344.07 439.03C342.93 440.06 341.73 441.01 340.47 441.89C339.81 442.35 339.14 442.79 338.46 443.21C338.09 443.44 337.71 443.66 337.34 443.88L336.96 444.1C336.47 444.34 336.45 444.38 336.89 444.2L338.15 444.54C338.49 444.99 338.55 445.06 338.35 444.76C338.24 444.6 338.14 444.43 338.06 444.25C337.94 443.98 337.84 443.66 337.79 443.37C337.68 442.74 337.77 442.21 337.94 441.6C338.84 438.5 334.01 437.18 333.12 440.27C332.36 442.91 332.75 447.16 335.39 448.74C336.94 449.67 338.45 449.01 339.86 448.2C341.18 447.44 342.47 446.6 343.7 445.71C348.01 442.57 354.36 437.4 352.15 431.28C351.23 428.72 347.25 428.99 347.24 431.94C347.24 433.1 346.86 433.99 346.17 434.91L350.49 437.43C351.96 434.97 351.96 431.95 350.49 429.49C349.15 427.24 346.04 428.37 345.83 430.75C345.72 431.99 345.21 433.19 344.4 434.14L348.67 435.91C348.8 434.45 348.79 433 348.65 431.54L344.89 433.7C344.69 433.59 344.47 432.87 344.3 432.81C344.27 432.8 344.21 433.04 344.21 433.03C343.96 433.32 343.69 433.93 343.43 434.33C342.8 435.29 342.06 436.15 341.23 436.94C340.45 437.69 339.61 438.35 338.69 438.92C338.21 439.22 337.7 439.56 337.17 439.76C337.17 439.76 337.37 439.68 337.36 439.7C337.06 439.7 336.99 439.7 337.16 439.71C337.54 439.73 337.85 439.93 338.11 440.3L338.45 441.56C338.05 442.27 338.04 442.37 338.43 441.85L338.71 441.53C338.99 441.21 339.28 440.9 339.57 440.59C340.16 439.97 340.77 439.38 341.4 438.81C341.98 438.29 342.57 437.78 343.18 437.3C343.66 436.92 344.4 436.21 344.98 436.03H343.65L343.98 436.09L342.88 435.45L343.07 435.63L342.43 434.53C342.4 434.45 342.49 434.08 342.44 434.07C342.42 434.07 342.13 434.67 342.1 434.73C341.83 435.22 341.54 435.7 341.21 436.14C340.65 436.91 339.96 437.61 339.23 438.24C338.55 438.83 337.78 439.31 336.98 439.73C336.58 439.94 336.17 440.15 335.74 440.27C335.74 440.27 335.48 440.35 335.49 440.34C335.27 440.54 335.37 439.87 335.91 440.54L336.55 441.64C336.31 442.32 336.28 442.53 336.45 442.27C336.64 442.06 336.83 441.86 337.02 441.65C337.31 441.35 337.61 441.05 337.91 440.76C338.56 440.14 339.25 439.54 339.97 439.01C341.54 437.85 343.26 436.89 345.05 436.11L341.63 432.69C339.82 436.64 336.13 439.83 332.44 442.02C332.26 442.12 331.44 442.34 331.36 442.43L332.48 444.04L332.55 443.91C332.74 443.83 332.98 443.42 333.13 443.26C333.96 442.35 334.83 441.49 335.74 440.67C337.57 439.02 339.58 437.62 341.72 436.4L338.05 433.58C336.81 437.59 334.01 440.97 330.31 442.94C329.98 443.12 329.64 443.21 329.33 443.37C329.02 443.53 328.97 443.37 329.41 443.88C329.96 444.51 329.51 444.16 329.65 443.83C329.73 443.64 329.75 443.29 329.8 443.1C329.9 442.73 330.01 442.38 330.17 442.04C330.58 441.17 331.2 440.36 331.96 439.76C332.25 439.52 332.58 439.32 332.91 439.14C333.09 439.04 333.26 438.95 333.45 438.88C334.33 438.54 333.6 439.16 332.92 438.44L332.28 437.34C332.42 436.84 332.42 436.75 332.28 437.08C332.19 437.27 332.09 437.45 331.99 437.63C331.82 437.93 331.65 438.23 331.47 438.53C331.11 439.12 330.73 439.71 330.31 440.26C329.49 441.36 328.53 442.41 327.5 443.3C327.21 443.55 326.9 443.82 326.55 443.98C326.63 443.94 325.92 444.26 325.97 444.11C326 444.02 327.21 444.5 326.83 444.63C326.92 444.6 327.29 443.58 327.32 443.52C327.62 442.95 327.96 442.38 328.37 441.88C328.78 441.38 329.27 440.88 329.77 440.46C330.42 439.92 330.36 440.26 329.41 439.34C328.19 438.14 328.88 438.39 328.42 438.94C327.69 439.81 327.11 440.89 326.11 441.49C326.07 441.51 325.65 441.7 325.66 441.68C325.7 441.51 326.98 442.27 326.79 442.4C326.87 442.35 327.08 441.49 327.19 441.31C327.69 440.42 328.49 439.87 329.46 439.61L326.38 436.53C326.12 437.73 325.48 438.41 324.36 438.9L328.03 440.39C327.71 439.28 327.97 438.27 328.79 437.45C330.36 435.9 329.16 433.23 327.02 433.18C326.58 433.17 326.14 433.16 325.71 433.15L326.37 438.06C331.19 436.54 336.05 435.17 340.96 433.96C342.13 433.67 343.3 433.39 344.47 433.12C345.1 432.98 345.72 432.83 346.35 432.7C346.61 432.64 346.97 432.51 347.23 432.51C347.56 432.51 347.19 432.53 347.17 432.49C347.82 433.77 346.26 435.51 345.47 436.37C342.44 439.7 338.88 442.59 335.08 445C332.09 446.89 328.42 449.37 325.18 446.57C321.94 443.77 323.09 439.25 325.99 436.79C327.02 435.92 326.89 434.15 325.99 433.25C324.97 432.23 323.49 432.37 322.45 433.25L322.44 433.32Z" fill="#231F20"/>
<path d="M322.74 439.25C321.37 440.28 320.78 442.12 321.58 443.7C322.38 445.28 324.28 445.98 325.88 445.39C326.73 445.07 327.5 444.56 328.26 444.07C329.06 443.55 329.84 442.99 330.6 442.41C331.94 441.38 333.9 439.88 333.2 437.92C333.05 437.5 332.71 437.22 332.26 437.2C329.06 437.11 325.91 437.69 323.03 439.09C322.65 439.28 322.47 439.8 322.58 440.19C322.7 440.64 323.09 440.85 323.52 440.91C323.95 440.97 324.39 441.12 324.84 441.18L324.58 439.27C323.35 439.56 321.72 441.14 322.55 442.51C323.52 444.1 325.48 442.29 326.41 441.64C327.28 441.02 326.78 439.57 325.66 439.86C324.64 440.12 323.57 440.82 323.18 441.83C322.74 442.97 323.61 444.03 324.8 443.93C325.75 443.85 326.61 443.25 327.33 442.67C328.08 442.05 328.64 441.15 328.57 440.15C328.52 439.49 327.75 438.84 327.1 439.31C325.47 440.49 324.07 441.88 322.86 443.48C322.63 443.78 322.72 444.29 322.94 444.56C323.2 444.89 323.56 444.97 323.96 444.91C326.46 444.51 328.67 443.01 330.07 440.92C330.5 440.27 329.92 439.48 329.23 439.45C327.26 439.36 325.44 440.33 324.32 441.92C324.1 442.23 324.17 442.72 324.4 443C324.67 443.33 325.02 443.41 325.42 443.35C327.58 443.04 329.49 441.73 330.65 439.9C331.05 439.28 330.53 438.42 329.81 438.43C328.22 438.46 326.67 439.03 325.47 440.1C324.88 440.63 324.46 441.43 324.72 442.23C325.01 443.13 326.02 443.4 326.85 443.16C328.27 442.76 329.52 441.63 330.35 440.45C330.83 439.77 331.02 438.88 330.35 438.25C329.81 437.73 328.94 437.74 328.27 437.95C326.67 438.46 325.32 439.57 324.46 441.01C324.16 441.51 324.42 442.32 325.04 442.44C327.2 442.84 329.43 441.88 330.53 439.96C330.83 439.44 330.58 438.66 329.95 438.53C328.74 438.28 327.54 438.4 326.42 438.9C325.37 439.36 324.21 440.26 323.83 441.39C323.59 442.1 323.82 442.87 324.47 443.26C325.02 443.6 325.77 443.58 326.38 443.45C327.67 443.18 328.65 442.14 329.4 441.13C329.69 440.74 329.49 440 329.05 439.8C327.92 439.29 326.64 439.36 325.59 440.04C324.62 440.67 323.52 442.14 324.16 443.34C324.94 444.8 327.16 443.67 328.07 442.95C328.58 442.55 329.09 442.03 329.34 441.42C329.62 440.71 329.36 439.94 328.67 439.59C327.04 438.76 325.53 440.63 325.51 442.12C325.5 443.37 327.44 443.38 327.46 442.12C327.46 441.82 327.58 441.6 327.81 441.4C328.08 441.17 327.84 441.48 327.78 441.31L327.55 440.67L327.47 440.79C327.41 440.85 327.36 440.94 327.3 441C327.02 441.32 326.7 441.57 326.33 441.77C326.16 441.86 325.99 441.93 325.8 441.99C325.7 442.02 325.61 442.04 325.51 442.07C325.22 442.16 325.61 442.15 325.38 442.06L325.81 442.31V442.29C325.85 442.45 325.9 442.62 325.94 442.78C325.9 442.28 326.31 441.86 326.72 441.63C327.13 441.4 327.66 441.3 328.06 441.48L327.71 440.15C327.32 440.67 326.81 441.22 326.2 441.47C326.06 441.53 325.9 441.57 325.75 441.58C325.69 441.58 325.46 441.55 325.44 441.56C325.47 441.71 325.55 441.84 325.67 441.96C325.71 441.91 325.74 441.85 325.78 441.79C325.87 441.72 325.95 441.58 326.03 441.49C326.89 440.58 328.2 440.13 329.43 440.39L328.85 438.96C328.21 440.09 326.86 440.79 325.56 440.55L326.14 441.98C326.66 441.11 327.4 440.43 328.31 440C328.52 439.9 328.75 439.8 328.98 439.76C329 439.76 329.1 439.77 329.13 439.74C329.11 439.74 329.1 439.74 329.09 439.72C328.92 439.59 328.85 439.39 328.86 439.13C328.74 439.18 328.57 439.57 328.47 439.69C328.29 439.91 328.09 440.11 327.88 440.3C327.5 440.64 327.07 440.93 326.62 441.15C326.51 441.2 326.23 441.25 326.17 441.3C326.47 441.4 326.6 441.55 326.56 441.76C326.54 441.85 326.56 441.82 326.63 441.68C326.7 441.62 326.76 441.55 326.83 441.48C327.63 440.76 328.73 440.4 329.79 440.38L328.95 438.91C328.04 440.34 326.55 441.22 324.88 441.46L325.98 442.89C326.71 441.85 327.96 441.33 329.21 441.38L328.37 439.91C327.23 441.6 325.42 442.68 323.42 443L324.52 444.43C325.51 443.11 326.72 441.93 328.06 440.96L326.59 440.12C326.65 440.92 325.72 441.46 325.07 441.81C324.94 441.88 324.79 441.9 324.71 441.96C324.64 442.01 324.61 441.91 324.66 441.98C324.81 442.02 324.89 442.12 324.91 442.27C324.91 442.45 324.95 442.5 325.02 442.42C325.1 442.4 325.34 442.09 325.42 442.03C325.65 441.87 325.89 441.78 326.16 441.71L325.41 439.93C325.02 440.21 324.62 440.49 324.23 440.76C324.09 440.86 323.84 440.97 323.74 441.1C323.6 441.28 323.61 440.98 323.9 441.19L324.25 441.54C324.48 441.84 324.14 441.79 324.36 441.62C324.33 441.65 324.58 441.36 324.55 441.39C324.71 441.24 324.87 441.18 325.08 441.13C325.55 441.02 325.85 440.52 325.78 440.06C325.7 439.54 325.32 439.27 324.82 439.22C324.38 439.17 323.95 439.01 323.5 438.95L323.99 440.77C326.56 439.52 329.39 439.07 332.24 439.14L331.3 438.42C331.65 439.38 330.08 440.34 329.45 440.82C328.34 441.67 327.18 442.46 325.98 443.17C325.53 443.43 325.04 443.7 324.5 443.64C324.09 443.59 323.68 443.35 323.43 443.03C322.95 442.43 323.07 441.4 323.7 440.92C324.12 440.6 324.34 440.08 324.05 439.59C323.81 439.18 323.14 438.92 322.72 439.24L322.74 439.25Z" fill="#F2F2EF"/>
<path d="M332 438.91L331.97 439.17C331.97 439.17 331.97 439.17 331.97 439.16L331.87 439.39L331.72 439.59L331.52 439.74L331.29 439.84C331.29 439.84 331.3 439.84 331.31 439.84L331.05 439.87C331.05 439.87 331.07 439.87 331.08 439.87L330.82 439.84C330.82 439.84 330.84 439.84 330.85 439.84L330.62 439.74C330.62 439.74 330.63 439.74 330.64 439.75L330.44 439.6C330.44 439.6 330.44 439.6 330.45 439.61L330.3 439.41C330.3 439.41 330.3 439.41 330.3 439.43L330.2 439.2C330.2 439.2 330.2 439.2 330.2 439.21L330.17 438.95C330.17 438.95 330.17 438.96 330.17 438.97L330.2 438.71C330.2 438.71 330.2 438.73 330.2 438.74L330.3 438.51C330.3 438.51 330.3 438.53 330.29 438.53L330.44 438.33C330.44 438.33 330.42 438.36 330.4 438.37L330.6 438.22C330.6 438.22 330.55 438.25 330.52 438.27L330.75 438.17C330.52 438.26 330.34 438.32 330.17 438.5C330.04 438.64 329.93 438.81 329.88 439C329.88 439 329.88 439.01 329.88 439.02L329.85 439.28C329.85 439.28 329.85 439.3 329.85 439.31C329.85 439.33 329.85 439.35 329.85 439.38L329.88 439.12C329.88 439.12 329.88 439.14 329.88 439.15L329.98 438.92C329.98 438.92 329.97 438.94 329.96 438.95L330.11 438.75C330.11 438.75 330.11 438.76 330.09 438.77L330.29 438.62C330.29 438.62 330.28 438.62 330.27 438.63L330.5 438.53C330.5 438.53 330.5 438.53 330.49 438.53L330.75 438.5C330.75 438.5 330.74 438.5 330.73 438.5L330.99 438.53C330.99 438.53 330.99 438.53 330.98 438.53L331.21 438.63C331.28 438.68 331.34 438.73 331.41 438.78L331.56 438.98L331.66 439.21C331.66 439.21 331.66 439.21 331.66 439.2L331.69 439.46C331.69 439.46 331.69 439.46 331.69 439.45L331.66 439.71C331.66 439.71 331.66 439.7 331.66 439.69L331.56 439.92C331.56 439.92 331.56 439.92 331.56 439.91L331.41 440.11L331.21 440.26L330.98 440.36C330.89 440.37 330.81 440.38 330.72 440.39L330.46 440.36C330.38 440.33 330.3 440.3 330.23 440.26L330.03 440.11C330.12 440.21 330.22 440.28 330.34 440.31C330.46 440.37 330.58 440.4 330.72 440.39C330.85 440.39 330.98 440.37 331.1 440.31C331.22 440.27 331.33 440.2 331.41 440.11L331.56 439.91C331.65 439.76 331.69 439.59 331.69 439.42L331.66 439.16C331.61 438.99 331.53 438.85 331.41 438.73C331.38 438.7 331.34 438.67 331.31 438.65C331.28 438.62 331.24 438.6 331.21 438.57C331.2 438.57 330.99 438.48 330.97 438.47C330.94 438.47 330.73 438.44 330.7 438.43C330.61 438.43 330.52 438.44 330.44 438.47C330.27 438.52 330.12 438.6 330 438.73C329.94 438.79 329.88 438.86 329.84 438.94C329.82 438.97 329.75 439.14 329.74 439.18C329.74 439.18 329.74 439.18 329.74 439.19C329.71 439.28 329.71 439.37 329.7 439.47L329.73 439.73L329.83 439.96C329.91 440.11 329.97 440.15 330.09 440.25C330.22 440.35 330.22 440.36 330.43 440.43C330.48 440.44 330.49 440.44 330.57 440.45C330.61 440.45 330.67 440.47 330.71 440.47C330.76 440.47 330.8 440.46 330.85 440.45C330.9 440.45 330.94 440.45 330.98 440.43L331.21 440.33C331.21 440.33 331.22 440.33 331.23 440.32L331.43 440.17C331.49 440.11 331.63 439.91 331.59 439.96C331.65 439.87 331.7 439.77 331.72 439.66C331.74 439.58 331.75 439.46 331.76 439.36C331.76 439.34 331.76 439.33 331.76 439.31L331.73 439.57C331.73 439.57 331.73 439.54 331.74 439.53L331.64 439.76C331.64 439.76 331.65 439.74 331.66 439.73L331.51 439.93C331.51 439.93 331.53 439.91 331.54 439.9L331.34 440.05C331.34 440.05 331.4 440.01 331.43 440L331.2 440.1C331.29 440.06 331.38 440.03 331.47 439.99C331.49 439.99 331.5 439.98 331.51 439.97C331.56 439.94 331.6 439.9 331.64 439.87C331.67 439.84 331.73 439.81 331.77 439.77C331.83 439.7 331.9 439.63 331.94 439.54L332.04 439.31C332.04 439.31 332.04 439.31 332.04 439.3C332.04 439.3 332.04 439.29 332.04 439.28L332.07 439.02C332.07 439.02 332.07 439.02 332.07 439.01C332.07 438.92 332.06 438.83 332.03 438.74C332 438.65 331.97 438.57 331.92 438.49C331.89 438.46 331.87 438.42 331.84 438.39C331.82 438.35 331.79 438.32 331.76 438.29C331.71 438.25 331.62 438.17 331.54 438.13C331.36 438.04 331.2 437.99 331 437.99L330.74 438.02C330.74 438.02 330.74 438.02 330.73 438.02C330.65 438.04 330.56 438.08 330.49 438.12L330.29 438.27C330.16 438.39 330.14 438.46 330.08 438.6C330.02 438.74 329.99 438.81 329.99 439C329.99 439.13 330.01 439.26 330.07 439.38C330.11 439.5 330.18 439.61 330.27 439.69C330.36 439.79 330.46 439.85 330.58 439.89C330.7 439.95 330.82 439.98 330.96 439.97L331.22 439.94C331.39 439.89 331.53 439.81 331.65 439.69L331.8 439.49C331.89 439.34 331.93 439.17 331.93 439L332 438.91Z" fill="#F2F2EF"/>
<path d="M372.5 654.37C381.66 665.79 395.98 673.83 409.54 678.9C425.15 684.74 441.44 678.53 455.52 671.48C483.03 657.7 507.2 637.27 527.02 613.86C537.7 601.25 548.32 587.48 556.27 572.96C559.57 566.93 550.36 561.54 547.06 567.58C538.75 582.76 527.61 597.16 516.21 610.12C504.81 623.08 491.65 635.45 477.37 645.71C470.17 650.88 462.65 655.64 454.84 659.84C446.4 664.37 437.33 668.93 427.74 670.29C418.15 671.65 409.38 667.63 400.81 663.04C392.92 658.81 385.7 653.88 380.05 646.84C375.75 641.48 368.25 649.08 372.51 654.38L372.5 654.37Z" fill="#231F20"/>
<path d="M532.22 518.38C547.98 534.93 564.76 552.06 577.35 571.21C583.54 580.62 587.79 591.13 589.36 602.31C589.83 605.65 591.4 612.83 589.16 615.9C586.47 619.6 577.63 616.53 574.25 615.29C567.8 612.92 565.01 623.23 571.41 625.58C581.89 629.43 597.23 630.01 600.12 616.46C602.73 604.26 598.27 589.4 593.4 578.33C587.79 565.56 578.67 554.79 569.75 544.22C560.09 532.78 550.08 521.66 539.76 510.82C535.02 505.84 527.48 513.39 532.22 518.36V518.38Z" fill="#231F20"/>
<path d="M143.18 851.32H179.69C189.54 851.32 196.43 853.95 200.34 859.21C204.25 864.47 206.21 873.68 206.21 886.83C206.21 899.98 204.25 909.1 200.32 914.4C196.39 919.7 189.52 922.34 179.7 922.34H143.19V851.32H143.18ZM174.8 910.13C179.43 910.13 182.84 908.88 185.03 906.39C187.22 903.9 188.32 897.38 188.32 886.82C188.32 876.26 187.22 869.74 185.03 867.25C182.84 864.76 179.43 863.51 174.8 863.51H161.07V910.12H174.8V910.13Z" fill="white"/>
<path d="M221.93 917.23C216.63 913.55 213.99 907.38 213.99 898.71V851.31H231.93V896.76C231.93 901.67 233.04 905.2 235.27 907.33C237.5 909.47 241.08 910.54 246.03 910.54C250.98 910.54 254.53 909.48 256.79 907.36C259.05 905.24 260.18 901.7 260.18 896.76V851.31H278.01V898.71C278.01 907.37 275.36 913.54 270.07 917.23C264.77 920.91 256.76 922.75 246.03 922.75C235.3 922.75 227.23 920.91 221.94 917.23H221.93Z" fill="white"/>
<path d="M292.86 913.55C288.18 907.41 285.84 898.43 285.84 886.62C285.84 874.81 288.17 865.91 292.84 859.84C297.5 853.77 306.17 850.74 318.83 850.74C331.49 850.74 340.04 853.63 344.26 859.42C348.49 865.21 350.6 872.06 350.6 879.99H332.5C332.5 873.19 331.32 868.63 328.95 866.31C326.58 863.99 323.17 862.84 318.72 862.84C314.27 862.84 310.6 864.18 307.94 866.86C305.27 869.54 303.94 876.14 303.94 886.67C303.94 897.2 305.27 903.94 307.94 906.61C310.6 909.28 314.2 910.61 318.72 910.61C323.24 910.61 326.54 909.43 328.93 907.06C331.31 904.69 332.51 900.16 332.51 893.46H350.61C350.61 901.21 348.49 908.03 344.24 913.92C339.99 919.81 331.54 922.76 318.88 922.76C306.22 922.76 297.55 919.69 292.87 913.55H292.86Z" fill="white"/>
<path d="M359.22 851.32H377.05V882.15L400.09 851.32H420.13L393.25 886.88L420.24 922.34H400.15L377.06 891.62V922.34H359.23V851.32H359.22Z" fill="white"/>
<path d="M431.66 915.97C427.28 911.45 425.08 905.05 425.08 896.77H442.97C442.97 902.8 444.26 906.63 446.84 908.24C449.42 909.85 452.81 910.66 457.02 910.66C461.23 910.66 464.62 910.02 467.2 908.74C469.78 907.46 471.07 905.49 471.07 902.82C471.07 899.66 469.32 897.52 465.81 896.38C462.3 895.24 457.46 894.06 451.29 892.83C441.47 890.73 434.66 888.33 430.85 885.65C427.04 882.97 425.14 878.61 425.14 872.58C425.14 866.55 427.38 861.4 431.87 857.14C436.36 852.88 444.67 850.75 456.81 850.75C468.95 850.75 477.46 853.08 481.93 857.75C486.4 862.41 488.64 868.64 488.64 876.42H470.7C470.7 870.53 469.37 866.78 466.7 865.19C464.03 863.59 460.67 862.8 456.6 862.8C452.32 862.8 448.88 863.47 446.29 864.8C443.69 866.13 442.4 868.04 442.4 870.53C442.4 873.79 444.21 876 447.82 877.16C451.43 878.32 456.27 879.53 462.34 880.79C472.44 882.86 479.36 885.12 483.09 887.58C486.83 890.04 488.69 894.28 488.69 900.31C488.69 906.34 486.51 911.9 482.14 916.25C477.77 920.6 469.44 922.77 457.13 922.77C444.82 922.77 436.05 920.51 431.67 915.98L431.66 915.97Z" fill="white"/>
<path d="M500.1 851.32H517.93V922.34H500.1V851.32Z" fill="white"/>
<path d="M530.03 851.32H566.54C576.39 851.32 583.28 853.95 587.19 859.21C591.1 864.47 593.06 873.68 593.06 886.83C593.06 899.98 591.1 909.1 587.17 914.4C583.24 919.7 576.37 922.34 566.55 922.34H530.04V851.32H530.03ZM561.65 910.13C566.28 910.13 569.69 908.88 571.88 906.39C574.07 903.9 575.17 897.38 575.17 886.82C575.17 876.26 574.07 869.74 571.88 867.25C569.69 864.76 566.28 863.51 561.65 863.51H547.92V910.12H561.65V910.13Z" fill="white"/>
<path d="M600.36 851.32H652.28V863.52H618.3V880.56H649.86V892.13H618.3V910.12H652.28V922.32H600.36V851.3V851.32Z" fill="white"/>
<path d="M226.97 987.96C224.8 985.67 223.71 981.95 223.71 976.8H229.6C229.6 981.18 230.39 984.04 231.97 985.36C233.55 986.68 235.84 987.34 238.85 987.34C241.86 987.34 244.13 986.79 245.73 985.69C247.33 984.59 248.13 983.09 248.13 981.19C248.13 978.87 247.15 977.26 245.2 976.35C243.25 975.44 240.5 974.55 236.96 973.66C232.23 972.49 228.85 971.19 226.81 969.74C224.77 968.29 223.75 965.97 223.75 962.78C223.75 959.83 224.87 957.31 227.11 955.2C229.35 953.09 233.25 952.04 238.83 952.04C244.41 952.04 248.4 953.21 250.59 955.56C252.78 957.91 253.88 961.54 253.88 966.46H248.02C248.02 962.17 247.21 959.38 245.59 958.07C243.97 956.77 241.69 956.12 238.74 956.12C235.79 956.12 233.46 956.68 231.86 957.8C230.26 958.92 229.46 960.36 229.46 962.12C229.46 964.36 230.44 965.96 232.39 966.93C234.34 967.9 237.06 968.8 240.55 969.64C245.41 970.83 248.85 972.09 250.87 973.43C252.89 974.77 253.9 977.09 253.9 980.38C253.9 983.48 252.8 986.09 250.6 988.21C248.4 990.33 244.49 991.38 238.88 991.38C233.27 991.38 229.15 990.24 226.98 987.95L226.97 987.96Z" fill="white"/>
<path d="M259.26 952.39H265.15V969.22H282.55V952.39H288.41V991.16H282.55V973.3H265.15V991.16H259.26V952.39Z" fill="white"/>
<path d="M298.23 986.74C295.55 983.6 294.21 978.61 294.21 971.78C294.21 964.95 295.55 960 298.22 956.82C300.89 953.64 305.09 952.05 310.81 952.05C316.53 952.05 320.71 953.63 323.39 956.8C326.07 959.97 327.41 964.96 327.41 971.78C327.41 978.6 326.07 983.6 323.39 986.74C320.71 989.88 316.51 991.45 310.81 991.45C305.11 991.45 300.91 989.88 298.23 986.74ZM318.56 984.3C320.55 982.25 321.55 978.08 321.55 971.78C321.55 965.48 320.55 961.28 318.56 959.23C316.57 957.18 313.98 956.16 310.81 956.16C307.64 956.16 305.05 957.18 303.06 959.23C301.07 961.28 300.07 965.46 300.07 971.78C300.07 978.1 301.06 982.25 303.06 984.3C305.05 986.35 307.64 987.37 310.81 987.37C313.98 987.37 316.57 986.35 318.56 984.3Z" fill="white"/>
<path d="M332.24 952.39H349.47C353.76 952.39 356.64 953.69 358.13 956.3C359.61 958.9 360.36 962.18 360.36 966.12C360.36 970.06 359.61 973.31 358.12 975.93C356.63 978.54 353.74 979.85 349.48 979.85H338.14V991.17H332.25V952.4L332.24 952.39ZM347.69 975.77C350.22 975.77 351.99 974.94 353 973.29C354.02 971.63 354.52 969.25 354.52 966.12C354.52 962.99 354.01 960.61 353 958.95C351.99 957.29 350.21 956.47 347.69 956.47H338.13V975.77H347.69Z" fill="white"/>
<path d="M382.41 988.92C379.63 987.18 378.25 984.62 378.25 981.25C378.25 977.88 379.85 975.18 383.05 973.15C386.25 971.12 389.17 969.47 391.81 968.21C394.45 967.12 396.58 965.99 398.19 964.83C399.8 963.67 400.6 962.32 400.6 960.77C400.6 959.22 400.07 957.96 399.02 957.15C397.97 956.35 396.58 955.94 394.86 955.94C393.23 955.94 391.91 956.32 390.88 957.09C389.85 957.86 389.34 959.09 389.34 960.79C389.34 962.36 389.86 963.77 390.89 965.03C391.92 966.29 393.19 967.57 394.68 968.89L417.08 991.15H410.36L390.48 971.74C389.08 970.4 387.62 968.83 386.09 967.03C384.56 965.23 383.79 963.14 383.79 960.77C383.79 957.84 384.86 955.65 387.01 954.21C389.15 952.76 391.75 952.04 394.79 952.04C398.14 952.04 400.86 952.77 402.96 954.22C405.06 955.68 406.1 957.85 406.1 960.74C406.1 963.32 404.94 965.41 402.61 966.99C400.28 968.57 397.64 970.08 394.67 971.51C391.63 972.83 389.1 974.2 387.09 975.62C385.08 977.04 384.07 978.81 384.07 980.93C384.07 983.05 384.94 984.72 386.68 985.8C388.42 986.88 391.12 987.42 394.78 987.42C399.03 987.42 402.84 986.25 406.21 983.92C409.58 981.59 411.26 977.52 411.26 971.71H416.49C416.49 978.68 414.29 983.72 409.9 986.85C405.51 989.97 400.36 991.53 394.46 991.53C389.19 991.53 385.17 990.66 382.4 988.92H382.41Z" fill="white"/>
<path d="M435.74 952.39H460.18V956.47H441.63V971.06H458.69V974.97H441.63V991.17H435.74V952.4V952.39Z" fill="white"/>
<path d="M473.07 952.3H481.48L494.43 991.16H488.37L484.98 980.39H469.56L466.14 991.16H460.08L473.06 952.3H473.07ZM483.98 976.42L477.32 955.83H477.26L470.57 976.42H483.98Z" fill="white"/>
<path d="M498.46 952.39H517.42C521.19 952.39 523.73 953.48 525.04 955.65C526.35 957.82 527.01 960.45 527.01 963.53C527.01 966.61 526.33 969.18 524.97 971.28C523.61 973.39 521.02 974.44 517.19 974.44H504.38V991.15H498.46V952.38V952.39ZM515.58 970.71C517.7 970.71 519.16 970.07 519.95 968.79C520.74 967.51 521.13 965.77 521.13 963.59C521.13 961.41 520.73 959.72 519.94 958.42C519.15 957.12 517.69 956.47 515.59 956.47H504.39V970.71H515.59H515.58ZM513.28 972.86L519.14 972.54L527.35 991.15H520.97L513.27 972.86H513.28Z" fill="white"/>
<path d="M532.15 952.39H541.74L551.96 984.99L562.16 952.39H571.75V991.16H565.98V956.47H565.84L555.47 989.04H548.43L538.09 956.47H537.95V991.16H532.15V952.39Z" fill="white"/>
<path d="M678.93 519.91C689.64 519.91 702.61 534.03 702.61 548.43C702.61 562.83 694.59 577 683.88 577" fill="#AB7F74"/>
<path d="M678.93 519.91L577.07 520.33C577.07 520.33 504.27 521.29 495.81 521.67C483.28 522.23 469.17 525.2 464.42 529.96C459.67 534.72 448.04 551.9 467.82 561.18C487.6 570.47 526.43 571.28 549.37 572C572.32 572.71 683.88 577 683.88 577" fill="#83655C"/>
<path d="M704.34 548.94C704.34 562.98 696.32 576.79 685.61 576.79C674.9 576.79 662.66 560.65 662.66 546.62C662.66 532.59 669.95 521.14 680.65 521.14C691.35 521.14 704.33 534.9 704.33 548.94H704.34Z" fill="#5F424F"/>
<path d="M680.66 521.14L650.71 521.2C650.71 521.2 638.3 536.31 642.67 552.23C647 568.02 659.37 576.19 661.23 576.73C663.09 577.27 685.61 576.79 685.61 576.79" fill="#5F424F"/>
<path d="M704.29 549.04C704.29 563.13 696.27 576.99 685.56 576.99C674.85 576.99 662.61 560.8 662.61 546.71C662.61 532.62 669.9 521.14 680.6 521.14C691.3 521.14 704.28 534.95 704.28 549.04H704.29Z" stroke="#231F20" stroke-width="8.5" stroke-miterlimit="10"/>
<path d="M680.62 521.15L578.76 521.56C578.76 521.56 505.94 522.17 497.5 522.87C489.06 523.57 477.72 521.92 464.42 529.34C458.61 532.58 448.66 552.41 468.44 561.49C488.22 570.57 528.12 571.41 551.06 572.1C574.01 572.8 685.57 576.99 685.57 576.99" stroke="#231F20" stroke-width="8.5" stroke-miterlimit="10"/>
</g>
<defs>
<clipPath id="clip0_151_5218">
<rect width="775.19" height="991.53" fill="white"/>
</clipPath>
</defs>
</svg>
